<?xml version="1.0" encoding="utf-8"?>
<!-- Generator: Adobe Illustrator 18.0.0, SVG Export Plug-In . SVG Version: 6.00 Build 0)  -->
<!DOCTYPE svg PUBLIC "-//W3C//DTD SVG 1.1//EN" "http://www.w3.org/Graphics/SVG/1.1/DTD/svg11.dtd">
<svg version="1.1" id="Layer_1" xmlns="http://www.w3.org/2000/svg" xmlns:xlink="http://www.w3.org/1999/xlink" x="0px" y="0px"
	 width="22px" height="22px" viewBox="0 0 22 22" enable-background="new 0 0 22 22" xml:space="preserve">
<g>
	<path fill="#009F98" d="M21.004,3H0.996C0.446,3,0,2.554,0,2.004V0.996C0,0.446,0.446,0,0.996,0h20.009C21.554,0,22,0.446,22,0.996
		v1.009C22,2.554,21.554,3,21.004,3z"/>
	<path fill="#009F98" d="M21.004,12.5H0.996C0.446,12.5,0,12.054,0,11.504v-1.009C0,9.946,0.446,9.5,0.996,9.5h20.009
		C21.554,9.5,22,9.946,22,10.496v1.009C22,12.054,21.554,12.5,21.004,12.5z"/>
	<path fill="#009F98" d="M21.004,22H0.996C0.446,22,0,21.554,0,21.004v-1.009C0,19.446,0.446,19,0.996,19h20.009
		C21.554,19,22,19.446,22,19.996v1.009C22,21.554,21.554,22,21.004,22z"/>
</g>
</svg>
