<?xml version="1.0" encoding="utf-8"?>
<!-- Generator: Adobe Illustrator 18.1.0, SVG Export Plug-In . SVG Version: 6.00 Build 0)  -->
<!DOCTYPE svg PUBLIC "-//W3C//DTD SVG 1.1//EN" "http://www.w3.org/Graphics/SVG/1.1/DTD/svg11.dtd">
<svg version="1.1" id="Layer_1" xmlns="http://www.w3.org/2000/svg" xmlns:xlink="http://www.w3.org/1999/xlink" x="0px" y="0px"
	 width="551px" height="286.2px" viewBox="0 0 551 286.2" enable-background="new 0 0 551 286.2" xml:space="preserve">
<g>
	<path opacity="0.07" fill="#231F20" d="M529.583,57.986c-1.465,2.56-1.455,5.705,0.03,8.254L551,102.968V20.571L529.583,57.986z"/>
	<path opacity="0.07" fill="#231F20" d="M529.583,210.452c-1.465,2.56-1.455,5.705,0.03,8.254L551,255.434v-82.397L529.583,210.452z
		"/>
	<path opacity="0.16" fill="#364D55" d="M403.647,0l31.523,54.136c1.487,2.546,4.215,4.107,7.163,4.1l74.791-0.278
		c2.95-0.011,5.667-1.594,7.133-4.154L551,7.083V0H403.647z"/>
	<path opacity="0.14" fill="#364D55" d="M522.697,68.006c-1.487-2.546-4.215-4.107-7.163-4.1l-74.791,0.278
		c-2.95,0.011-5.667,1.594-7.133,4.154l-37.154,64.908c-1.465,2.56-1.455,5.705,0.03,8.254l37.635,64.633
		c1.487,2.546,4.215,4.107,7.163,4.1l74.791-0.278c2.95-0.011,5.667-1.594,7.133-4.154L551,157.249v-40.637L522.697,68.006z"/>
	<path opacity="0.07" fill="#231F20" d="M396.054,0H297.57l-32.592,56.937c-1.465,2.56-1.455,5.705,0.03,8.254l37.635,64.633
		c1.487,2.546,4.215,4.107,7.163,4.1l74.791-0.278c2.95-0.011,5.667-1.594,7.133-4.154l37.154-64.907
		c1.465-2.561,1.455-5.705-0.03-8.255L396.054,0z"/>
	<path opacity="0.07" fill="#231F20" d="M139.161,0l31.523,54.136c1.487,2.546,4.215,4.107,7.163,4.1l74.791-0.278
		c2.95-0.011,5.667-1.594,7.133-4.154L290.568,0H139.161z"/>
	<path opacity="0.21" fill="#364D55" d="M297.045,132.039L259.41,67.407c-1.487-2.546-4.215-4.107-7.163-4.1l-74.791,0.278
		c-2.95,0.011-5.667,1.594-7.133,4.154l-37.154,64.908c-1.465,2.56-1.455,5.705,0.03,8.254l37.635,64.633
		c1.487,2.546,4.215,4.107,7.163,4.1l74.791-0.278c2.95-0.011,5.667-1.594,7.133-4.154l37.154-64.907
		C298.54,137.733,298.53,134.589,297.045,132.039z"/>
	<path opacity="0.07" fill="#231F20" d="M428.854,208.606l-37.635-64.633c-1.487-2.546-4.215-4.107-7.163-4.1l-74.791,0.278
		c-2.95,0.011-5.667,1.594-7.133,4.154l-37.154,64.908c-1.465,2.56-1.455,5.705,0.03,8.254l37.635,64.633
		c1.487,2.546,4.215,4.107,7.163,4.1l74.791-0.278c2.95-0.011,5.667-1.594,7.133-4.154l37.154-64.907
		C430.349,214.3,430.339,211.155,428.854,208.606z"/>
	<path opacity="0.07" fill="#231F20" d="M132.167,0H33.683L1.091,56.937c-1.465,2.56-1.455,5.705,0.03,8.254l37.635,64.633
		c1.487,2.546,4.215,4.107,7.163,4.1l74.791-0.278c2.95-0.011,5.667-1.594,7.133-4.154l37.154-64.907
		c1.465-2.561,1.455-5.705-0.03-8.255L132.167,0z"/>
</g>
</svg>
