<?xml version="1.0" encoding="utf-8"?>
<!-- Generator: Adobe Illustrator 18.1.0, SVG Export Plug-In . SVG Version: 6.00 Build 0)  -->
<!DOCTYPE svg PUBLIC "-//W3C//DTD SVG 1.1//EN" "http://www.w3.org/Graphics/SVG/1.1/DTD/svg11.dtd">
<svg version="1.1" id="Layer_1" xmlns="http://www.w3.org/2000/svg" xmlns:xlink="http://www.w3.org/1999/xlink" x="0px" y="0px"
	 width="455px" height="178.398px" viewBox="0 0 455 178.398" enable-background="new 0 0 455 178.398" xml:space="preserve">
<g>
	<path opacity="0.21" fill="#364D55" d="M84.794,152.744c1.466-2.561,1.455-5.707-0.03-8.258L47.112,79.824
		c-1.487-2.547-4.217-4.109-7.166-4.102L0,75.871v102.527h70.109L84.794,152.744z"/>
	<path opacity="0.07" fill="#231F20" d="M178.65,156.168c-1.487-2.547-4.216-4.109-7.166-4.102l-74.825,0.278
		c-2.951,0.011-5.67,1.595-7.136,4.156l-12.534,21.897h114.606L178.65,156.168z"/>
	<path opacity="0.14" fill="#364D55" d="M90.034,142.291c1.487,2.547,4.216,4.109,7.166,4.102l74.825-0.278
		c2.951-0.011,5.67-1.595,7.136-4.156l37.171-64.937c1.466-2.561,1.455-5.707-0.03-8.258L178.65,4.102
		c-1.487-2.547-4.216-4.109-7.166-4.102L96.659,0.278c-2.951,0.011-5.67,1.595-7.136,4.156L52.352,69.371
		c-1.466,2.562-1.455,5.708,0.03,8.258L90.034,142.291z"/>
	<path opacity="0.16" fill="#364D55" d="M348.2,152.744c1.466-2.561,1.455-5.707-0.03-8.258l-37.652-64.662
		c-1.487-2.547-4.217-4.109-7.166-4.102l-74.825,0.278c-2.951,0.011-5.67,1.594-7.136,4.156l-37.171,64.936
		c-1.466,2.562-1.455,5.708,0.03,8.259l14.584,25.046h134.68L348.2,152.744z"/>
	<path opacity="0.07" fill="#231F20" d="M442.056,156.168c-1.487-2.547-4.216-4.109-7.166-4.102l-74.825,0.278
		c-2.951,0.011-5.67,1.595-7.136,4.156l-12.534,21.897H455L442.056,156.168z"/>
</g>
</svg>
