<?xml version="1.0" encoding="utf-8"?>
<!-- Generator: Adobe Illustrator 18.0.0, SVG Export Plug-In . SVG Version: 6.00 Build 0)  -->
<!DOCTYPE svg PUBLIC "-//W3C//DTD SVG 1.1//EN" "http://www.w3.org/Graphics/SVG/1.1/DTD/svg11.dtd">
<svg version="1.1" id="Layer_1" xmlns="http://www.w3.org/2000/svg" xmlns:xlink="http://www.w3.org/1999/xlink" x="0px" y="0px"
	 width="25.953px" height="20px" viewBox="0 0 25.953 20" enable-background="new 0 0 25.953 20" xml:space="preserve">
<path fill="#CCCCCC" d="M24.913,14.816l-5.219-2.365c1.165-4.602-1.093-9.532-5.566-11.559C9.106-1.385,3.167,0.85,0.891,5.872
	S0.85,16.833,5.872,19.109c4.472,2.027,9.669,0.475,12.361-3.435l5.219,2.365c0.89,0.403,1.939,0.009,2.342-0.881
	C26.198,16.268,25.803,15.219,24.913,14.816z M7.333,15.886c-3.245-1.471-4.689-5.308-3.218-8.553s5.308-4.689,8.553-3.218
	s4.689,5.308,3.218,8.553S10.578,17.357,7.333,15.886z"/>
</svg>
