<?xml version="1.0" encoding="utf-8"?>
<!-- Generator: Adobe Illustrator 17.1.0, SVG Export Plug-In . SVG Version: 6.00 Build 0)  -->
<!DOCTYPE svg PUBLIC "-//W3C//DTD SVG 1.1//EN" "http://www.w3.org/Graphics/SVG/1.1/DTD/svg11.dtd">
<svg version="1.1" id="Layer_1" xmlns="http://www.w3.org/2000/svg" xmlns:xlink="http://www.w3.org/1999/xlink" x="0px" y="0px"
	 width="32px" height="32px" viewBox="0 0 32 32" enable-background="new 0 0 32 32" xml:space="preserve">
<rect fill="none" width="32" height="32"/>
<path d="M26,22.2c1.5-2.2,2.3-4.8,2.3-7.6c0-3.7-1.4-7.1-4-9.7c-2.6-2.6-6-4-9.7-4s-7.1,1.4-9.7,4c-2.6,2.6-4,6-4,9.7
	c0,3.7,1.4,7.1,4,9.7c2.6,2.6,6,4,9.7,4c2.7,0,5.4-0.8,7.6-2.3l5,5.1l3.8-3.8L26,22.2z M20.5,20.5c-1.6,1.6-3.7,2.4-5.9,2.4
	c-2.2,0-4.3-0.9-5.9-2.4c-1.6-1.6-2.4-3.7-2.4-5.9c0-2.2,0.9-4.3,2.4-5.9c1.6-1.6,3.7-2.4,5.9-2.4c2.2,0,4.3,0.9,5.9,2.4
	c1.6,1.6,2.4,3.7,2.4,5.9C22.9,16.8,22.1,18.9,20.5,20.5z"/>
</svg>
