<?xml version="1.0" encoding="utf-8"?>
<!-- Generator: Adobe Illustrator 16.0.1, SVG Export Plug-In . SVG Version: 6.00 Build 0)  -->
<!DOCTYPE svg PUBLIC "-//W3C//DTD SVG 1.1//EN" "http://www.w3.org/Graphics/SVG/1.1/DTD/svg11.dtd">
<svg version="1.1" id="Layer_1" xmlns="http://www.w3.org/2000/svg" xmlns:xlink="http://www.w3.org/1999/xlink" x="0px" y="0px"
	 width="40px" height="40px" viewBox="0 0 40 40" enable-background="new 0 0 40 40" xml:space="preserve">
<rect fill="#009FE3" width="40" height="40"/>
<path fill="#FFFFFF" d="M34.479,11.817c-1.068-1.068-2.933-0.953-4.143,0.257L20,22.409L9.666,12.074
	c-1.211-1.21-3.075-1.325-4.144-0.257C4.453,12.885,4.57,14.749,5.78,15.96l11.968,11.968c0.229,0.229,0.482,0.419,0.75,0.569
	c0.44,0.289,0.962,0.426,1.499,0.416c0.54,0.011,1.064-0.126,1.508-0.416c0.267-0.15,0.519-0.34,0.748-0.569L34.221,15.96
	C35.432,14.749,35.547,12.885,34.479,11.817z"/>
</svg>
