<?xml version="1.0" encoding="utf-8"?>
<!-- Generator: Adobe Illustrator 16.0.1, SVG Export Plug-In . SVG Version: 6.00 Build 0)  -->
<!DOCTYPE svg PUBLIC "-//W3C//DTD SVG 1.1//EN" "http://www.w3.org/Graphics/SVG/1.1/DTD/svg11.dtd">
<svg version="1.1" id="Layer_1" xmlns="http://www.w3.org/2000/svg" xmlns:xlink="http://www.w3.org/1999/xlink" x="0px" y="0px"
	 width="227px" height="70px" viewBox="0 0 227 70" enable-background="new 0 0 227 70" xml:space="preserve">
<g>
	<path fill="#2BA6CB" d="M44.432,13.316l-6.108,5.828c-2.901-4.258-6.228-6.387-9.98-6.387c-2.714,0-4.964,0.799-6.747,2.396
		c-1.783,1.597-2.675,3.6-2.675,6.008c0,1.927,0.612,3.587,1.836,4.981c0.612,0.66,1.51,1.407,2.695,2.244
		c1.184,0.837,2.668,1.762,4.451,2.775c5.296,2.941,8.836,5.604,10.619,7.986c1.81,2.408,2.714,5.564,2.714,9.468
		c0,5.07-1.695,9.177-5.086,12.321c-3.37,3.144-7.888,4.715-13.557,4.715c-4.578,0-8.45-1.008-11.617-3.023
		c-1.597-1.008-3.088-2.319-4.471-3.935c-1.384-1.616-2.715-3.554-3.992-5.817l6.946-4.71c1.889,3.327,3.739,5.616,5.549,6.866
		c1.81,1.251,4.165,1.876,7.066,1.876c3.22,0,5.742-0.811,7.565-2.432c1.822-1.621,2.734-3.927,2.734-6.916
		c0-2.052-0.666-3.788-1.996-5.206c-0.666-0.735-1.657-1.558-2.974-2.47s-2.988-1.938-5.01-3.078
		c-4.631-2.609-7.864-5.092-9.701-7.448c-1.756-2.355-2.635-5.307-2.635-8.854c0-4.737,1.67-8.664,5.01-11.78
		c3.367-3.141,7.685-4.712,12.955-4.712c3.434,0,6.361,0.705,8.783,2.115C39.282,7.539,41.824,9.935,44.432,13.316z"/>
	<path fill="#2BA6CB" d="M115.092,33.701c0,6.759-1.854,12.891-5.561,18.396c-2.939,4.327-6.779,7.668-11.52,10.023
		c-4.741,2.355-9.984,3.533-15.73,3.533c-9.189,0-16.684-2.829-22.484-8.487c-5.8-5.684-8.699-13.032-8.699-22.044
		c0-8.986,3.072-16.411,9.216-22.274c6.17-5.888,13.956-8.833,23.357-8.833s16.988,2.727,22.761,8.18
		C112.206,17.622,115.092,24.791,115.092,33.701z M106.23,33.632c0-6.333-2.011-11.4-6.03-15.206
		c-4.02-3.779-9.419-5.669-16.2-5.669c-6.807,0-12.529,2.128-17.165,6.382c-4.583,4.255-6.874,9.574-6.874,15.957
		c0,6.308,2.13,11.527,6.392,15.657c4.26,4.105,9.647,6.157,16.16,6.157c6.779,0,12.421-2.215,16.923-6.646
		C103.965,45.884,106.23,40.34,106.23,33.632z"/>
	<path fill="#2BA6CB" d="M176.332,4.014l-4.471,35.792c-1.012,7.884-2.901,13.654-5.668,17.309
		c-4.445,5.691-10.619,8.537-18.523,8.537c-6.334,0-11.588-1.88-15.762-5.639c-4.077-3.812-6.115-8.537-6.115-14.177
		c0-1.201,0.045-2.467,0.135-3.798c0.09-1.331,0.226-2.742,0.407-4.23l4.102-33.795h8.969l-4.352,34.668
		c-0.133,1.037-0.233,1.995-0.299,2.876c-0.067,0.881-0.1,1.697-0.1,2.448c0,3.99,1.144,7.138,3.434,9.444
		c2.315,2.306,5.455,3.459,9.421,3.459c4.631,0,8.144-1.451,10.539-4.353c2.395-2.928,4.018-7.683,4.87-14.264l4.312-34.279H176.332
		z"/>
	<path fill="#2BA6CB" d="M191.103,4.014h12.495c5.429,0,9.567,0.905,12.415,2.715c2.342,1.464,4.178,3.526,5.509,6.188
		c1.331,2.742,1.996,5.629,1.996,8.663c0,4.418-1.237,8.303-3.712,11.657c-3.673,4.977-9.462,7.465-17.366,7.465h-6.746
		l-3.074,24.951h-9.142L191.103,4.014z M199.525,12.757l-2.475,19.841h5.948c3.752,0,6.633-0.953,8.643-2.859
		c2.009-1.906,3.014-4.661,3.014-8.264c0-5.811-3.752-8.717-11.258-8.717H199.525z"/>
</g>
</svg>
