<?xml version="1.0" encoding="utf-8"?>
<!-- Generator: Adobe Illustrator 18.0.0, SVG Export Plug-In . SVG Version: 6.00 Build 0)  -->
<!DOCTYPE svg PUBLIC "-//W3C//DTD SVG 1.1//EN" "http://www.w3.org/Graphics/SVG/1.1/DTD/svg11.dtd">
<svg version="1.1" id="Layer_1" xmlns="http://www.w3.org/2000/svg" xmlns:xlink="http://www.w3.org/1999/xlink" x="0px" y="0px"
	 width="46px" height="46px" viewBox="0 0 46 46" enable-background="new 0 0 46 46" xml:space="preserve">
<g>
	<path fill="#CCCCCC" d="M22.575,16.775c0.602,0,0.891-0.477,0.891-1.431v-4.338c0-0.954-0.288-1.429-0.891-1.429
		c-0.603,0-0.892,0.475-0.892,1.429v4.338C21.682,16.298,21.971,16.775,22.575,16.775z"/>
	<path fill="#CCCCCC" d="M0,0v46h46V0H0z M26.872,8.02h1.863v7.59c0,0.439,0,0.667,0.023,0.727c0.04,0.29,0.186,0.438,0.437,0.438
		c0.374,0,0.766-0.29,1.181-0.875V8.02h1.869v10.31h-1.869v-1.125c-0.745,0.853-1.454,1.269-2.135,1.269
		c-0.602,0-1.017-0.245-1.203-0.768c-0.103-0.311-0.166-0.806-0.166-1.533V8.02z M19.814,11.38c0-1.102,0.187-1.907,0.585-2.429
		c0.517-0.704,1.245-1.057,2.176-1.057c0.936,0,1.662,0.353,2.18,1.057c0.392,0.522,0.581,1.327,0.581,2.429v3.612
		c0,1.096-0.189,1.908-0.581,2.426c-0.518,0.703-1.244,1.056-2.18,1.056c-0.931,0-1.659-0.353-2.176-1.056
		c-0.398-0.518-0.585-1.33-0.585-2.426V11.38z M14.818,4.494l1.47,5.433l1.413-5.433h2.095l-2.492,8.232v5.604h-2.073v-5.604
		c-0.187-0.993-0.602-2.448-1.266-4.378c-0.436-1.283-0.892-2.573-1.328-3.855H14.818z M37.76,38.077
		c-0.374,1.626-1.704,2.826-3.306,3.006c-3.794,0.424-7.634,0.426-11.456,0.424c-3.823,0.002-7.663,0-11.456-0.424
		c-1.603-0.18-2.933-1.379-3.306-3.006c-0.533-2.316-0.533-4.847-0.533-7.232c0-2.388,0.005-4.914,0.539-7.233
		c0.374-1.626,1.704-2.826,3.306-3.005c3.794-0.425,7.634-0.426,11.456-0.425c3.821-0.001,7.662,0,11.456,0.425
		c1.603,0.179,2.933,1.379,3.306,3.005c0.533,2.319,0.53,4.845,0.53,7.233C38.297,33.23,38.295,35.761,37.76,38.077z"/>
	<path fill="#CCCCCC" d="M33.264,27.135c-0.943,0-1.681,0.347-2.214,1.046c-0.394,0.516-0.571,1.313-0.571,2.404v3.575
		c0,1.082,0.201,1.889,0.594,2.398c0.534,0.697,1.27,1.046,2.239,1.046c0.965,0,1.723-0.366,2.236-1.107
		c0.223-0.327,0.368-0.699,0.431-1.108c0.017-0.186,0.041-0.597,0.041-1.192V33.93H34.13c0,0.742-0.022,1.151-0.039,1.251
		c-0.106,0.494-0.373,0.742-0.827,0.742c-0.634,0-0.943-0.47-0.943-1.416v-1.808h3.698v-2.113c0-1.091-0.186-1.889-0.574-2.404
		C34.927,27.482,34.191,27.135,33.264,27.135z M34.168,31.159H32.32v-0.943c0-0.944,0.309-1.416,0.928-1.416
		c0.611,0,0.92,0.473,0.92,1.416V31.159z"/>
	<path fill="#CCCCCC" d="M27.375,27.135c-0.679,0-1.312,0.373-1.91,1.106v-4.472h-1.848v13.694h1.848v-0.988
		c0.618,0.764,1.252,1.13,1.91,1.13c0.737,0,1.231-0.387,1.478-1.147c0.123-0.432,0.186-1.112,0.186-2.055v-4.064
		c0-0.965-0.063-1.641-0.186-2.052C28.606,27.523,28.112,27.135,27.375,27.135z M27.191,34.548c0,0.922-0.271,1.375-0.804,1.375
		c-0.304,0-0.613-0.145-0.922-0.453v-6.221c0.309-0.303,0.618-0.449,0.922-0.449c0.533,0,0.804,0.473,0.804,1.393V34.548z"/>
	<path fill="#CCCCCC" d="M20.165,35.059c-0.409,0.578-0.798,0.864-1.169,0.864c-0.247,0-0.387-0.145-0.433-0.432
		c-0.017-0.06-0.017-0.286-0.017-0.719V27.26h-1.848v8.068c0,0.721,0.062,1.207,0.164,1.517c0.184,0.518,0.595,0.76,1.191,0.76
		c0.68,0,1.378-0.411,2.112-1.253v1.112h1.851V27.26h-1.851V35.059z"/>
	<polygon fill="#CCCCCC" points="9.983,25.698 12.158,25.698 12.158,37.463 14.214,37.463 14.214,25.698 16.43,25.698 16.43,23.769 
		9.983,23.769 	"/>
</g>
</svg>
