<svg xmlns="http://www.w3.org/2000/svg" width="22" height="22" viewBox="0 0 22 22"><g fill="#009F98"><path d="M21.004 3H.996C.446 3 0 2.554 0 2.004V.996C0 .446.446 0 .996 0h20.01c.548 0 .994.446.994.996v1.01c0 .548-.446.994-.996.994zM21.004 12.5H.996c-.55 0-.996-.446-.996-.996v-1.01C0 9.947.446 9.5.996 9.5h20.01c.548 0 .994.446.994.996v1.01c0 .548-.446.994-.996.994zM21.004 22H.996C.446 22 0 21.554 0 21.004v-1.01C0 19.447.446 19 .996 19h20.01c.548 0 .994.446.994.996v1.01c0 .548-.446.994-.996.994z"/></g></svg>