<svg xmlns="http://www.w3.org/2000/svg" width="919.89" height="477.289" viewBox="0 0 919.89 477.289"><path opacity=".07" fill="#231F20" d="M884.174 96.7c-2.444 4.27-2.426 9.515.05 13.766l35.666 61.25V34.307L884.174 96.7zM884.174 350.965c-2.444 4.27-2.426 9.514.05 13.765l35.666 61.25V288.57l-35.716 62.395z"/><path opacity=".16" fill="#364D55" d="M674.153 0l52.57 90.28c2.48 4.247 7.03 6.85 11.945 6.838l124.728-.464c4.92-.018 9.45-2.658 11.895-6.928l44.6-77.914V0H674.153z"/><path opacity=".14" fill="#364D55" d="M872.69 113.412c-2.48-4.246-7.03-6.85-11.945-6.838l-124.728.464c-4.92.018-9.45 2.66-11.895 6.928l-61.96 108.245c-2.445 4.27-2.427 9.515.05 13.767l62.762 107.786c2.48 4.246 7.03 6.85 11.945 6.837l124.727-.464c4.92-.018 9.45-2.658 11.895-6.928l46.348-80.97V194.47l-47.2-81.058z"/><path opacity=".07" fill="#231F20" d="M661.49 0H497.25l-54.352 94.953c-2.444 4.27-2.426 9.514.05 13.766l62.763 107.785c2.48 4.246 7.03 6.85 11.946 6.837l124.728-.464c4.92-.018 9.45-2.658 11.895-6.928l61.96-108.244c2.444-4.27 2.426-9.515-.05-13.766L661.49 0zM233.075 0l52.57 90.28c2.48 4.247 7.03 6.85 11.945 6.838l124.728-.464c4.92-.018 9.45-2.658 11.895-6.928L485.573 0H233.075z"/><path opacity=".21" fill="#364D55" d="M494.375 221.198l-62.763-107.786c-2.48-4.246-7.03-6.85-11.945-6.838l-124.728.464c-4.92.018-9.452 2.66-11.896 6.928l-61.96 108.245c-2.445 4.27-2.427 9.515.05 13.767l62.762 107.786c2.48 4.246 7.03 6.85 11.945 6.837l124.73-.464c4.918-.018 9.45-2.658 11.894-6.928l61.96-108.244c2.445-4.27 2.427-9.514-.05-13.766z"/><path opacity=".07" fill="#231F20" d="M716.19 347.886L653.426 240.1c-2.48-4.246-7.03-6.85-11.945-6.838l-124.727.464c-4.92.018-9.45 2.66-11.895 6.928L442.898 348.9c-2.444 4.27-2.426 9.514.05 13.766l62.763 107.786c2.48 4.246 7.03 6.85 11.946 6.837l124.728-.465c4.92-.018 9.45-2.658 11.895-6.928l61.96-108.244c2.443-4.27 2.425-9.515-.05-13.767zM220.412 0H56.172L1.82 94.953c-2.444 4.27-2.426 9.514.05 13.766l62.763 107.785c2.48 4.246 7.03 6.85 11.945 6.837l124.728-.464c4.92-.018 9.45-2.658 11.895-6.928l61.962-108.244c2.444-4.27 2.426-9.515-.05-13.766L220.412 0z"/></svg>