<svg xmlns="http://www.w3.org/2000/svg" width="551" height="286.2" viewBox="0 0 551 286.2"><path opacity=".07" fill="#231F20" d="M529.583 57.986c-1.465 2.56-1.455 5.705.03 8.254L551 102.968V20.57l-21.417 37.416zM529.583 210.452c-1.465 2.56-1.455 5.705.03 8.254L551 255.434v-82.397l-21.417 37.415z"/><path opacity=".16" fill="#364D55" d="M403.647 0l31.523 54.136c1.487 2.546 4.215 4.107 7.163 4.1l74.79-.278c2.95-.01 5.668-1.594 7.134-4.154L551 7.084V0H403.647z"/><path opacity=".14" fill="#364D55" d="M522.697 68.006c-1.487-2.546-4.215-4.107-7.163-4.1l-74.79.278c-2.95.01-5.668 1.594-7.134 4.154l-37.154 64.908c-1.465 2.56-1.455 5.705.03 8.254l37.635 64.633c1.488 2.546 4.216 4.107 7.164 4.1l74.79-.278c2.95-.01 5.668-1.594 7.134-4.154L551 157.25V116.61l-28.303-48.606z"/><path opacity=".07" fill="#231F20" d="M396.054 0H297.57l-32.592 56.937c-1.465 2.56-1.455 5.705.03 8.254l37.635 64.634c1.487 2.546 4.215 4.107 7.163 4.1l74.79-.278c2.95-.01 5.668-1.594 7.134-4.154l37.154-64.907c1.465-2.56 1.455-5.705-.03-8.255L396.054 0zM139.16 0l31.524 54.136c1.487 2.546 4.215 4.107 7.163 4.1l74.79-.278c2.95-.01 5.668-1.594 7.134-4.154L290.57 0H139.16z"/><path opacity=".21" fill="#364D55" d="M297.045 132.04L259.41 67.406c-1.487-2.546-4.215-4.107-7.163-4.1l-74.79.278c-2.95.01-5.668 1.594-7.134 4.154l-37.154 64.907c-1.466 2.56-1.456 5.705.03 8.254l37.634 64.634c1.487 2.546 4.215 4.107 7.163 4.1l74.79-.278c2.95-.01 5.668-1.594 7.134-4.154l37.155-64.907c1.465-2.562 1.455-5.706-.03-8.256z"/><path opacity=".07" fill="#231F20" d="M428.854 208.606l-37.635-64.633c-1.488-2.546-4.216-4.107-7.164-4.1l-74.79.278c-2.95.012-5.668 1.595-7.134 4.155l-37.154 64.908c-1.465 2.56-1.455 5.705.03 8.254l37.635 64.633c1.487 2.546 4.215 4.107 7.163 4.1l74.79-.278c2.95-.01 5.668-1.594 7.134-4.154l37.154-64.907c1.465-2.56 1.455-5.705-.03-8.254zM132.167 0H33.683L1.09 56.937c-1.464 2.56-1.454 5.705.03 8.254l37.636 64.634c1.487 2.546 4.215 4.107 7.163 4.1l74.79-.278c2.95-.01 5.667-1.594 7.133-4.154l37.154-64.907c1.465-2.56 1.455-5.705-.03-8.255L132.167 0z"/></svg>