<svg xmlns="http://www.w3.org/2000/svg" width="760.451" height="297.377" viewBox="0 0 760.451 297.377"><path opacity=".21" fill="#364D55" d="M141.345 254.613c2.444-4.27 2.426-9.514-.05-13.766L78.532 133.06c-2.48-4.245-7.03-6.85-11.945-6.836L0 126.472v170.905h116.866l24.48-42.764z"/><path opacity=".07" fill="#231F20" d="M297.795 260.32c-2.48-4.246-7.03-6.85-11.945-6.837l-124.728.464c-4.92.018-9.45 2.658-11.895 6.928l-20.894 36.5h191.04l-21.578-37.055z"/><path opacity=".14" fill="#364D55" d="M150.08 237.19c2.48 4.245 7.03 6.85 11.945 6.836l124.728-.464c4.92-.018 9.45-2.66 11.895-6.928l61.96-108.245c2.445-4.27 2.427-9.515-.05-13.766L297.796 6.837c-2.48-4.246-7.03-6.85-11.945-6.837L161.123.464c-4.92.018-9.45 2.658-11.895 6.928l-61.96 108.244c-2.445 4.27-2.427 9.515.05 13.766L150.08 237.19z"/><path opacity=".16" fill="#364D55" d="M582.423 254.613c2.444-4.27 2.426-9.514-.05-13.766L519.61 133.06c-2.48-4.245-7.03-6.85-11.945-6.836l-124.728.464c-4.92.018-9.45 2.658-11.895 6.928l-61.96 108.244c-2.444 4.27-2.426 9.515.05 13.767l24.31 41.75h224.503l24.478-42.764z"/><path opacity=".07" fill="#231F20" d="M738.873 260.32c-2.48-4.246-7.03-6.85-11.945-6.837l-124.728.464c-4.92.018-9.45 2.658-11.895 6.928l-20.894 36.5h191.04l-21.577-37.055z"/></svg>