<svg xmlns="http://www.w3.org/2000/svg" width="227" height="70" viewBox="0 0 227 70"><g fill="#2BA6CB"><path d="M44.432 13.316l-6.108 5.828c-2.9-4.258-6.228-6.387-9.98-6.387-2.714 0-4.964.8-6.747 2.396-1.783 1.597-2.675 3.6-2.675 6.008 0 1.928.612 3.588 1.836 4.982.612.66 1.51 1.407 2.695 2.244 1.184.837 2.668 1.762 4.45 2.775 5.297 2.942 8.837 5.605 10.62 7.987 1.81 2.408 2.714 5.564 2.714 9.468 0 5.07-1.695 9.177-5.086 12.32-3.37 3.145-7.887 4.716-13.556 4.716-4.578 0-8.45-1.007-11.617-3.022-1.597-1.008-3.088-2.32-4.47-3.935-1.385-1.616-2.716-3.554-3.993-5.817l6.946-4.71c1.89 3.327 3.74 5.616 5.55 6.866 1.81 1.25 4.164 1.876 7.065 1.876 3.22 0 5.742-.81 7.565-2.432 1.822-1.62 2.734-3.927 2.734-6.916 0-2.052-.666-3.788-1.996-5.206-.666-.735-1.657-1.558-2.974-2.47s-2.988-1.938-5.01-3.078c-4.63-2.61-7.864-5.092-9.7-7.448-1.757-2.355-2.636-5.307-2.636-8.854 0-4.737 1.67-8.664 5.01-11.78 3.367-3.14 7.685-4.712 12.955-4.712 3.434 0 6.36.705 8.783 2.115 2.476 1.412 5.018 3.808 7.626 7.19zM115.092 33.7c0 6.76-1.854 12.892-5.56 18.397-2.94 4.327-6.78 7.668-11.52 10.023-4.742 2.355-9.985 3.533-15.73 3.533-9.19 0-16.685-2.83-22.485-8.487-5.8-5.684-8.7-13.032-8.7-22.044 0-8.986 3.073-16.41 9.217-22.274C66.484 6.96 74.27 4.015 83.67 4.015s16.99 2.727 22.762 8.18c5.774 5.427 8.66 12.596 8.66 21.506zm-8.862-.068c0-6.333-2.01-11.4-6.03-15.206-4.02-3.78-9.42-5.67-16.2-5.67-6.807 0-12.53 2.13-17.165 6.383-4.583 4.254-6.874 9.573-6.874 15.956 0 6.308 2.13 11.527 6.393 15.657 4.26 4.105 9.647 6.157 16.16 6.157 6.78 0 12.42-2.215 16.923-6.646 4.53-4.38 6.794-9.924 6.794-16.632zM176.332 4.014l-4.47 35.792c-1.013 7.884-2.902 13.654-5.67 17.31-4.444 5.69-10.618 8.536-18.522 8.536-6.334 0-11.588-1.88-15.762-5.64-4.077-3.81-6.115-8.536-6.115-14.176 0-1.2.045-2.467.135-3.798.09-1.33.226-2.742.407-4.23l4.102-33.795h8.97l-4.353 34.668c-.133 1.038-.233 1.996-.3 2.877-.066.88-.1 1.697-.1 2.448 0 3.99 1.145 7.138 3.435 9.444 2.314 2.305 5.454 3.458 9.42 3.458 4.63 0 8.144-1.45 10.54-4.353 2.394-2.928 4.017-7.683 4.87-14.264l4.31-34.278h9.102zM191.103 4.014h12.495c5.43 0 9.567.905 12.415 2.715 2.342 1.463 4.178 3.525 5.51 6.187 1.33 2.742 1.995 5.63 1.995 8.663 0 4.418-1.237 8.303-3.712 11.657-3.673 4.977-9.462 7.465-17.366 7.465h-6.746l-3.074 24.95h-9.142l7.625-61.638zm8.422 8.743l-2.475 19.84h5.948c3.752 0 6.633-.952 8.643-2.858 2.01-1.907 3.015-4.662 3.015-8.265 0-5.81-3.752-8.717-11.258-8.717h-3.872z"/></g></svg>