<svg xmlns="http://www.w3.org/2000/svg" width="32" height="32" viewBox="0 0 32 32"><path fill="none" d="M0 0h32v32H0z"/><path d="M4.2 19.5l.4.4C6 21 7.8 22.1 9.8 22.1c.9 0 2.3-.4 2.5-1.5.2-1.1-1-1.2-1.8-1.4l-1.7-.3c-3.4-.6-5.9-2.6-5.3-6.5.9-5.8 6.7-9 12-9 2.8 0 5.2.7 7.4 2.1l-3.4 6.2c-1.4-1-2.9-1.8-4.9-1.8-.8 0-2 .3-2.1 1.3-.1.9.9 1 1.6 1.2l1.9.5c3.6.8 6 2.8 5.4 7-.9 5.8-6.7 8.7-12 8.7-3.1 0-6.5-.8-9-2.2l3.8-6.9zm27.3 5.1c-.4 2.6-3.1 4-5.5 4s-4.6-1.5-4.2-4c.4-2.6 3.1-4.1 5.5-4.1s4.6 1.5 4.2 4.1z"/></svg>