<svg xmlns="http://www.w3.org/2000/svg" width="46" height="46" viewBox="0 0 46 46"><g fill="#ccc"><path d="M22.575 16.775c.602 0 .89-.477.89-1.43v-4.34c0-.953-.287-1.428-.89-1.428s-.892.475-.892 1.43v4.337c0 .954.288 1.43.892 1.43zM0 0v46h46V0H0zm26.872 8.02h1.863v7.59c0 .44 0 .667.023.727.04.29.186.438.437.438.374 0 .766-.29 1.18-.875V8.02h1.87v10.31h-1.87v-1.125c-.744.853-1.453 1.27-2.134 1.27-.6 0-1.016-.246-1.202-.77-.103-.31-.166-.805-.166-1.532V8.02zm-7.058 3.36c0-1.102.187-1.907.585-2.43.516-.703 1.244-1.056 2.175-1.056.936 0 1.662.353 2.18 1.057.392.523.58 1.328.58 2.43v3.612c0 1.096-.188 1.908-.58 2.426-.518.703-1.244 1.056-2.18 1.056-.93 0-1.66-.353-2.176-1.056-.4-.518-.586-1.33-.586-2.426V11.38zm-4.996-6.886l1.47 5.433L17.7 4.494h2.096l-2.492 8.232v5.604H15.23v-5.604c-.186-.993-.6-2.448-1.265-4.378-.436-1.283-.892-2.573-1.328-3.855h2.18zM37.76 38.077c-.374 1.626-1.704 2.826-3.306 3.006-3.794.424-7.634.426-11.456.424-3.823.002-7.663 0-11.456-.424-1.603-.18-2.933-1.38-3.306-3.006-.533-2.316-.533-4.847-.533-7.232 0-2.388.005-4.914.54-7.233.373-1.626 1.703-2.826 3.305-3.005 3.794-.425 7.634-.426 11.456-.425 3.82 0 7.662 0 11.456.425 1.603.18 2.933 1.38 3.306 3.005.533 2.32.53 4.845.53 7.233 0 2.385 0 4.916-.536 7.232zM33.264 27.135c-.943 0-1.68.347-2.214 1.046-.394.517-.57 1.314-.57 2.405v3.575c0 1.082.2 1.89.593 2.398.534.697 1.27 1.046 2.24 1.046.964 0 1.722-.366 2.235-1.107.223-.327.368-.7.43-1.108.018-.187.042-.598.042-1.193v-.267h-1.89c0 .742-.022 1.15-.04 1.25-.105.495-.372.743-.826.743-.634 0-.943-.47-.943-1.416V32.7h3.7v-2.114c0-1.09-.187-1.89-.575-2.404-.518-.7-1.254-1.047-2.18-1.047zm.904 4.024H32.32v-.944c0-.944.31-1.416.928-1.416.61 0 .92.473.92 1.416v.943zM27.375 27.135c-.68 0-1.312.373-1.91 1.106v-4.47h-1.848v13.693h1.848v-.988c.618.764 1.252 1.13 1.91 1.13.737 0 1.23-.387 1.478-1.147.123-.432.186-1.112.186-2.055V30.34c0-.966-.064-1.642-.187-2.053-.247-.764-.74-1.152-1.478-1.152zm-.184 7.413c0 .922-.27 1.375-.803 1.375-.304 0-.613-.145-.922-.453v-6.22c.31-.304.618-.45.922-.45.533 0 .804.473.804 1.393v4.355zM20.165 35.06c-.41.577-.798.863-1.17.863-.246 0-.386-.145-.432-.432-.017-.06-.017-.285-.017-.718V27.26h-1.848v8.068c0 .72.062 1.207.164 1.517.184.518.595.76 1.19.76.68 0 1.38-.41 2.113-1.253v1.112h1.85V27.26h-1.85v7.8zM9.983 25.698h2.175v11.765h2.056V25.698h2.216v-1.93H9.983z"/></g></svg>