<?xml version="1.0" standalone="no"?>
<!DOCTYPE svg PUBLIC "-//W3C//DTD SVG 20010904//EN"
 "http://www.w3.org/TR/2001/REC-SVG-20010904/DTD/svg10.dtd">
<svg version="1.0" xmlns="http://www.w3.org/2000/svg"
 width="183.000000pt" height="183.000000pt" viewBox="0 0 183.000000 183.000000"
 preserveAspectRatio="xMidYMid meet">
<metadata>
Created by potrace 1.11, written by Peter Selinger 2001-2013
</metadata>
<g transform="translate(0.000000,183.000000) scale(0.100000,-0.100000)"
fill="#000000" stroke="none">
<path d="M518 1813 c-9 -10 -41 -61 -71 -113 -30 -52 -82 -143 -116 -202 -33
-58 -61 -115 -61 -126 0 -11 23 -60 51 -109 60 -102 68 -117 139 -241 29 -52
59 -96 67 -99 9 -4 8 -9 -6 -22 -10 -9 -71 -107 -135 -218 -118 -204 -133
-246 -101 -273 8 -7 15 -17 15 -22 0 -5 25 -49 55 -99 30 -50 55 -92 55 -94 0
-3 20 -39 45 -81 25 -41 45 -79 45 -83 0 -26 54 -31 300 -29 l255 3 108 185
c60 102 119 206 131 232 13 26 28 53 33 60 6 7 21 31 33 53 12 22 65 113 116
202 52 89 94 169 94 178 0 9 -25 59 -55 111 -31 51 -54 96 -53 98 2 2 -4 12
-13 22 -17 20 -110 179 -143 242 -44 88 -240 418 -254 430 -12 9 -81 12 -267
12 -227 0 -253 -2 -267 -17z"/>
</g>
</svg>
